<?xml version="1.0" encoding="utf-8"?>
<!-- Generator: Adobe Illustrator 25.2.3, SVG Export Plug-In . SVG Version: 6.00 Build 0)  -->
<svg version="1.1" id="Calque_1" xmlns="http://www.w3.org/2000/svg" xmlns:xlink="http://www.w3.org/1999/xlink" x="0px" y="0px"
	 viewBox="0 0 123.84 159.84" style="enable-background:new 0 0 123.84 159.84;" xml:space="preserve">
<style type="text/css">
	.st0{fill:#F4F0EB;}
	.st1{fill:#CCC6BE;}
	.st2{fill:#8D8EA3;}
	.st3{fill:url(#path4519_2_);}
	.st4{fill:#7E8098;stroke:#4C494E;stroke-width:14.504;stroke-miterlimit:11.3389;}
	.st5{fill:#4C494E;}
	.st6{fill:#AD9732;}
	.st7{fill:url(#path4785_2_);}
	.st8{opacity:0.784;fill:url(#path4719_2_);enable-background:new    ;}
</style>
<g>
	<path id="path4496_1_" class="st0" d="M109.99,52.38C102.37,2.1,24.12,1.64,24.66,59.24c0.07,7.72,1.52,12.95,4.19,22.48
		c1.84,20.29-8.38,34.29-8.38,34.29l52.53,20.41l11.18-19.45l9.03-0.38l13.76-5.96l-0.12-9.81l2.77-5.77l-0.76-3.43l1.9-3.05
		l-1.14-4.95l6.09-7.24l-9.52-17.9L109.99,52.38z"/>
	<path id="path4498_1_" class="st1" d="M81.62,63.66l15.39-0.81l5.35-5.19l-5.67-2.76h-7.45L81.62,63.66z"/>
	<path id="path4500_1_" class="st1" d="M104,81.65l7.94-4.7l3.77-0.56l-6.09,7.24l0,0l0,0l-2.07,0.32L104,81.65z"/>
	<path id="path4502_1_" class="st2" d="M98.32,94.17l7.86-0.78l2.66-1.77l1.9-3.05l-2.8,1.35l-1.63-1.13L98.32,94.17z"/>
	<path id="path4504_1_" class="st1" d="M99.38,101.39l6.45-5.04l3.79-1.3l-2.77,5.77L99.38,101.39z"/>
	<path id="path4517_1_" class="st1" d="M93.2,116.59l6.28-5.36l7.48-0.6L93.2,116.59z"/>
	
		<linearGradient id="path4519_2_" gradientUnits="userSpaceOnUse" x1="-47.5531" y1="-19.2152" x2="-45.9886" y2="-20.1558" gradientTransform="matrix(-8.8062 0 0 8.8062 -334.6906 285.0752)">
		<stop  offset="0" style="stop-color:#7E8098"/>
		<stop  offset="1" style="stop-color:#F8F6F2"/>
	</linearGradient>
	<path id="path4519_1_" class="st3" d="M93.28,116.67l-14.68-8.81l-11.72,2.41l17.22,6.78L93.28,116.67z"/>
	
		<rect id="rect4529_1_" x="49.79" y="94.77" transform="matrix(0.4173 -0.9088 0.9088 0.4173 -87.4024 120.2258)" class="st4" width="0.51" height="66.99"/>
	<path id="path4565_1_" class="st5" d="M37.42,25.91c0,0,24.92-24.18,56.57-1.34C61.9,5.16,37.42,25.91,37.42,25.91z"/>
	<circle id="path4567_1_" class="st6" cx="65.06" cy="62.62" r="8.58"/>
	<path id="rect4589_1_" class="st6" d="M65.06,61.24L65.06,61.24c1.99,0,3.6,1.61,3.6,3.6v10.04c0,1.99-1.61,3.6-3.6,3.6l0,0
		c-1.99,0-3.6-1.61-3.6-3.6V64.84C61.46,62.85,63.07,61.24,65.06,61.24z"/>
	
		<linearGradient id="path4785_2_" gradientUnits="userSpaceOnUse" x1="-311.8116" y1="-11.4472" x2="-305.4228" y2="-1.9171" gradientTransform="matrix(2.8346 0 0 3.0516 946.2361 103.047)">
		<stop  offset="0" style="stop-color:#97731F"/>
		<stop  offset="1" style="stop-color:#97731F;stop-opacity:0"/>
	</linearGradient>
	<path id="path4785_1_" class="st7" d="M62.59,69.13c0,0.03-0.02,0.05-0.02,0.08v5.85c0,1.16,0.93,2.1,2.1,2.1h0.76
		c1.16,0,2.1-0.93,2.1-2.1v-5.85c0-0.02-0.01-0.04-0.01-0.06c-0.11,0.05-0.22,0.09-0.34,0.12c-0.22,0.07-0.45,0.13-0.68,0.17
		c-0.23,0.05-0.46,0.08-0.7,0.11c-0.23,0.02-0.47,0.04-0.71,0.04c-0.16,0-0.33,0-0.5-0.02c-0.23-0.02-0.47-0.05-0.7-0.09
		c-0.23-0.04-0.46-0.09-0.69-0.16C63,69.28,62.8,69.21,62.59,69.13L62.59,69.13z"/>
	
		<radialGradient id="path4719_2_" cx="-198.1892" cy="7.8509" r="2.4934" gradientTransform="matrix(0.4595 -4.9354 -2.8224 -0.2628 178.3255 -913.5505)" gradientUnits="userSpaceOnUse">
		<stop  offset="0" style="stop-color:#4C494E"/>
		<stop  offset="1" style="stop-color:#4C494E;stop-opacity:0"/>
	</radialGradient>
	<circle id="path4719_1_" class="st8" cx="65.1" cy="62.53" r="7.06"/>
</g>
</svg>
