<?xml version="1.0" encoding="utf-8"?>
<!-- Generator: Adobe Illustrator 25.2.3, SVG Export Plug-In . SVG Version: 6.00 Build 0)  -->
<svg version="1.1" id="Calque_1" xmlns="http://www.w3.org/2000/svg" xmlns:xlink="http://www.w3.org/1999/xlink" x="0px" y="0px"
	 viewBox="0 0 418.18 180.52" style="enable-background:new 0 0 418.18 180.52;" xml:space="preserve">
<style type="text/css">
	.st0{fill:#FFFFFF;}
	.st1{fill:#264556;}
	.st2{fill:#C49D04;}
	.st3{fill:#BAAFAF;}
</style>
<g>
	<g>
		<path class="st0" d="M134.7,75.56c0,41.41-24.4,41.41-29.13,62.04H41.75c-7.77-20.63-29.12-20.63-29.12-62.04
			c0-33.71,27.32-61.04,61.03-61.04C107.38,14.52,134.7,41.85,134.7,75.56z"/>
		<path class="st1" d="M111.14,144.6H36.9l-1.71-4.53c-2.25-5.98-6-9.96-10.33-14.56c-8.57-9.09-19.23-20.41-19.23-49.95
			c0-37.52,30.52-68.04,68.03-68.04c37.52,0,68.04,30.52,68.04,68.04c0,28.44-10.83,39.76-19.54,48.85
			c-4.69,4.9-8.4,8.77-9.77,14.75L111.14,144.6z M46.29,130.6h54.18c2.76-6.66,7.23-11.33,11.57-15.87
			c8.05-8.41,15.65-16.35,15.65-39.17c0-29.8-24.24-54.04-54.04-54.04c-29.79,0-54.03,24.24-54.03,54.04
			c0,23.99,7.49,31.93,15.42,40.35C39.04,120.15,43.15,124.5,46.29,130.6z"/>
	</g>
	<g>
		<path class="st0" d="M52.33,38.96c44.52,20.4,44.52,20.4,44.52,20.4s0,0-48.23,33.39c50.08,20.4,0,0,50.08,20.4"/>
		<polygon class="st2" points="96.06,119.64 34.01,94.36 82.76,60.61 49.41,45.33 55.25,32.6 110.94,58.12 63.24,91.15 
			101.34,106.67 		"/>
	</g>
	<rect x="48.62" y="160.26" class="st1" width="50.08" height="14"/>
	<g>
		<path class="st1" d="M237.71,78.48c0,9.27-1.6,17.4-4.81,24.39c-3.2,6.99-7.78,12.36-13.74,16.11
			c-5.95,3.75-12.81,5.62-20.56,5.62c-7.66,0-14.49-1.87-20.49-5.62c-6-3.74-10.63-9.08-13.9-16.01
			c-3.27-6.93-4.93-14.92-4.97-23.97v-5.33c0-9.22,1.63-17.36,4.9-24.42c3.27-7.06,7.88-12.46,13.83-16.2
			c5.95-3.74,12.78-5.62,20.49-5.62c7.71,0,14.54,1.85,20.49,5.55c5.95,3.7,10.55,9.03,13.8,15.98s4.89,15.04,4.94,24.26V78.48z
			 M221.27,73.54c0-10.48-1.98-18.51-5.94-24.1c-3.96-5.59-9.58-8.38-16.85-8.38c-7.1,0-12.65,2.78-16.66,8.35
			c-4.01,5.56-6.05,13.43-6.14,23.61v5.46c0,10.39,2.02,18.42,6.07,24.1c4.05,5.67,9.67,8.51,16.85,8.51
			c7.27,0,12.87-2.77,16.79-8.31c3.92-5.54,5.88-13.64,5.88-24.29V73.54z"/>
		<path class="st1" d="M288.82,86.92H270.5v36.37h-16.43V28.73h33.25c10.91,0,19.33,2.45,25.26,7.34c5.93,4.9,8.9,11.98,8.9,21.26
			c0,6.33-1.53,11.62-4.58,15.89c-3.05,4.27-7.31,7.55-12.76,9.85l21.24,39.38v0.84h-17.6L288.82,86.92z M270.5,73.67h16.89
			c5.54,0,9.87-1.4,12.99-4.19c3.12-2.79,4.68-6.61,4.68-11.46c0-5.07-1.44-8.98-4.32-11.76c-2.88-2.77-7.18-4.2-12.89-4.29H270.5
			V73.67z"/>
		<path class="st1" d="M412.54,78.48c0,9.27-1.6,17.4-4.81,24.39c-3.21,6.99-7.78,12.36-13.74,16.11
			c-5.95,3.75-12.8,5.62-20.55,5.62c-7.66,0-14.49-1.87-20.49-5.62c-6-3.74-10.63-9.08-13.9-16.01c-3.27-6.93-4.93-14.92-4.97-23.97
			v-5.33c0-9.22,1.63-17.36,4.9-24.42c3.27-7.06,7.88-12.46,13.83-16.2c5.95-3.74,12.78-5.62,20.49-5.62
			c7.71,0,14.54,1.85,20.49,5.55c5.95,3.7,10.55,9.03,13.8,15.98c3.25,6.95,4.89,15.04,4.94,24.26V78.48z M396.11,73.54
			c0-10.48-1.98-18.51-5.94-24.1c-3.96-5.59-9.58-8.38-16.85-8.38c-7.1,0-12.65,2.78-16.66,8.35c-4,5.56-6.05,13.43-6.14,23.61v5.46
			c0,10.39,2.02,18.42,6.07,24.1c4.05,5.67,9.67,8.51,16.85,8.51c7.27,0,12.87-2.77,16.79-8.31c3.92-5.54,5.88-13.64,5.88-24.29
			V73.54z"/>
	</g>
	<g>
		<path class="st3" d="M255.84,174.53h-3.78v-18.35h3.78V174.53z"/>
		<path class="st3" d="M274.26,174.53h-3.78l-7.36-12.07v12.07h-3.78v-18.35h3.78l7.37,12.1v-12.1h3.77V174.53z"/>
		<path class="st3" d="M292.48,174.53h-3.78l-7.36-12.07v12.07h-3.78v-18.35h3.78l7.37,12.1v-12.1h3.77V174.53z"/>
		<path class="st3" d="M310.86,165.77c0,1.81-0.32,3.39-0.96,4.75c-0.64,1.36-1.55,2.41-2.74,3.15c-1.19,0.74-2.55,1.11-4.09,1.11
			c-1.52,0-2.88-0.37-4.07-1.1c-1.19-0.73-2.12-1.77-2.77-3.13s-0.99-2.92-1-4.68v-0.91c0-1.81,0.33-3.4,0.98-4.77
			c0.65-1.37,1.57-2.43,2.76-3.16c1.19-0.73,2.55-1.1,4.08-1.1s2.89,0.37,4.08,1.1c1.19,0.74,2.11,1.79,2.76,3.16
			c0.65,1.37,0.98,2.96,0.98,4.76V165.77z M307.03,164.94c0-1.92-0.34-3.39-1.03-4.39c-0.69-1-1.67-1.5-2.95-1.5
			c-1.27,0-2.25,0.49-2.94,1.48c-0.69,0.99-1.04,2.43-1.05,4.34v0.89c0,1.87,0.34,3.33,1.03,4.36c0.69,1.03,1.68,1.55,2.97,1.55
			c1.27,0,2.24-0.5,2.92-1.49s1.02-2.45,1.03-4.35V164.94z"/>
		<path class="st3" d="M320.11,169.98l4.16-13.8h4.21l-6.39,18.35h-3.94l-6.36-18.35h4.2L320.11,169.98z"/>
		<path class="st3" d="M339.62,170.74h-6.63l-1.26,3.78h-4.02l6.83-18.35h3.5l6.87,18.35h-4.02L339.62,170.74z M334.01,167.68h4.59
			l-2.31-6.87L334.01,167.68z"/>
		<path class="st3" d="M358.92,159.24h-5.62v15.29h-3.78v-15.29h-5.55v-3.06h14.95V159.24z"/>
		<path class="st3" d="M365.1,174.53h-3.78v-18.35h3.78V174.53z"/>
		<path class="st3" d="M383.67,165.77c0,1.81-0.32,3.39-0.96,4.75c-0.64,1.36-1.55,2.41-2.74,3.15s-2.55,1.11-4.09,1.11
			c-1.52,0-2.88-0.37-4.07-1.1s-2.12-1.77-2.77-3.13s-0.99-2.92-1-4.68v-0.91c0-1.81,0.33-3.4,0.98-4.77
			c0.65-1.37,1.57-2.43,2.76-3.16c1.19-0.73,2.55-1.1,4.08-1.1c1.53,0,2.89,0.37,4.08,1.1c1.19,0.74,2.11,1.79,2.76,3.16
			c0.65,1.37,0.98,2.96,0.98,4.76V165.77z M379.84,164.94c0-1.92-0.34-3.39-1.03-4.39c-0.69-1-1.67-1.5-2.95-1.5
			c-1.27,0-2.25,0.49-2.94,1.48c-0.69,0.99-1.04,2.43-1.05,4.34v0.89c0,1.87,0.34,3.33,1.03,4.36c0.69,1.03,1.68,1.55,2.97,1.55
			c1.27,0,2.24-0.5,2.92-1.49s1.03-2.45,1.03-4.35V164.94z"/>
		<path class="st3" d="M401.34,174.53h-3.78l-7.36-12.07v12.07h-3.78v-18.35h3.78l7.37,12.1v-12.1h3.77V174.53z"/>
		<path class="st3" d="M404.59,172.74c0-0.58,0.2-1.05,0.59-1.41c0.39-0.36,0.88-0.54,1.47-0.54c0.6,0,1.09,0.18,1.48,0.54
			c0.39,0.36,0.59,0.83,0.59,1.41c0,0.57-0.19,1.04-0.58,1.39c-0.39,0.36-0.88,0.54-1.49,0.54c-0.6,0-1.09-0.18-1.47-0.54
			C404.79,173.77,404.59,173.31,404.59,172.74z"/>
	</g>
</g>
</svg>
