<?xml version="1.0" encoding="utf-8"?>
<!-- Generator: Adobe Illustrator 25.2.3, SVG Export Plug-In . SVG Version: 6.00 Build 0)  -->
<svg version="1.1" id="Calque_1" xmlns="http://www.w3.org/2000/svg" xmlns:xlink="http://www.w3.org/1999/xlink" x="0px" y="0px"
	 viewBox="0 0 141.56 113.13" style="enable-background:new 0 0 141.56 113.13;" xml:space="preserve">
<style type="text/css">
	.st0{fill:#CCBEBF;}
	.st1{fill:#BAAFAF;}
	.st2{fill:#A59D9D;}
	.st3{fill:#264556;}
	.st4{fill:#C49D04;}
</style>
<g>
	<g>
		<path class="st0" d="M136.04,9.3c-1.53,44.67-27.3,83.2-64.56,102.83C34.22,92.5,8.45,53.98,6.92,9.3H136.04z"/>
		<path class="st1" d="M136.04,9.3c-1.53,44.67-27.3,83.2-64.56,102.83c-13.04-6.88-24.68-16.07-34.35-27.02L109.5,9.3H136.04z"/>
	</g>
	<path class="st0" d="M21.94-19.33"/>
	<g>
		<g>
			<g>
				<path class="st2" d="M74.59,68.93c6.64,0,12.05-5.41,12.05-12.05c0-4.54-2.56-8.67-6.57-10.72l0-19.19
					c0-0.29-0.11-0.57-0.32-0.77l-4.38-4.38c-0.43-0.43-1.12-0.43-1.55,0l-4.38,4.38c-0.21,0.21-0.32,0.48-0.32,0.77l0,2.19
					c0,0.33,0.15,0.65,0.42,0.86l1.31,1.04l-1.48,1.78c-0.34,0.41-0.34,0.99,0,1.4l1.48,1.78l-1.31,1.04
					c-0.25,0.19-0.39,0.48-0.41,0.79c-0.02,0.31,0.1,0.62,0.32,0.84l1.44,1.44l-1.42,1.42c-0.21,0.21-0.32,0.48-0.32,0.77
					l-0.03,3.95c-4.02,2.05-6.57,6.06-6.57,10.6C62.54,63.53,67.94,68.93,74.59,68.93z M71.3,61.26c0-1.81,1.47-3.29,3.29-3.29
					s3.29,1.47,3.29,3.29c0,1.81-1.47,3.29-3.29,3.29C72.77,64.55,71.3,63.08,71.3,61.26z"/>
			</g>
		</g>
		<g>
		</g>
		<g>
		</g>
		<g>
		</g>
		<g>
		</g>
		<g>
		</g>
		<g>
		</g>
		<g>
		</g>
		<g>
		</g>
		<g>
		</g>
		<g>
		</g>
		<g>
		</g>
		<g>
		</g>
		<g>
		</g>
		<g>
		</g>
		<g>
		</g>
	</g>
	<g>
		<g>
			<g>
				<g>
					<path class="st3" d="M72.59,67.93c6.64,0,12.05-5.41,12.05-12.05c0-4.54-2.56-8.67-6.57-10.72l0-19.19
						c0-0.29-0.11-0.57-0.32-0.77l-4.38-4.38c-0.43-0.43-1.12-0.43-1.55,0l-4.38,4.38c-0.21,0.21-0.32,0.48-0.32,0.77l0,2.19
						c0,0.33,0.15,0.65,0.42,0.86l1.31,1.04l-1.48,1.78c-0.34,0.41-0.34,0.99,0,1.4l1.48,1.78l-1.31,1.04
						c-0.25,0.19-0.39,0.48-0.41,0.79c-0.02,0.31,0.1,0.62,0.32,0.84l1.44,1.44l-1.42,1.42c-0.21,0.21-0.32,0.48-0.32,0.77
						l-0.03,3.95c-4.02,2.05-6.57,6.06-6.57,10.6C60.54,62.53,65.94,67.93,72.59,67.93z M69.3,60.26c0-1.81,1.47-3.29,3.29-3.29
						s3.29,1.47,3.29,3.29c0,1.81-1.47,3.29-3.29,3.29S69.3,62.08,69.3,60.26z"/>
				</g>
			</g>
		</g>
	</g>
	<rect x="6.82" y="6.95" class="st4" width="128.97" height="2.41"/>
</g>
</svg>
